<svg width="163.000000" height="47.500488" viewBox="0 0 163 47.5005" fill="none" xmlns="http://www.w3.org/2000/svg" xmlns:xlink="http://www.w3.org/1999/xlink">
	<desc>
			Created with Pixso.
	</desc>
	<defs/>
	<path id="Vector" d="M19.0017 36.6675L19.0017 47.5005L38 36.5269L38 25.6953L19.0017 36.6675Z" fill="#2947A9" fill-opacity="1.000000" fill-rule="nonzero"/>
	<path id="Vector" d="M27.5062 15.7451L36.8801 10.3286L19.0017 0L19.0017 10.833L27.5062 15.7451Z" fill="#0B267D" fill-opacity="1.000000" fill-rule="nonzero"/>
	<path id="Vector" d="M11.6182 18.9795L11.6182 29.8159L19.0015 34.0796L19.0015 23.248L11.6182 18.9795Z" fill="#91A1D4" fill-opacity="1.000000" fill-rule="nonzero"/>
	<path id="Vector" d="M38 12.27L19.0017 23.248L19.0017 34.0796L38 23.106L38 12.27Z" fill="#2947A9" fill-opacity="1.000000" fill-rule="nonzero"/>
	<path id="Vector" d="M1.13135 10.3223L10.4492 15.7705L19.0015 10.833L19.0015 0L1.13135 10.3223Z" fill="#2947A9" fill-opacity="1.000000" fill-rule="nonzero"/>
	<path id="Vector" d="M9.3772 31.1104L9.3772 17.6802L0 12.2651L0 36.5264L19.0015 47.5L19.0015 36.667L9.3772 31.1104Z" fill="#91A1D4" fill-opacity="1.000000" fill-rule="nonzero"/>
	<path id="TheBox" d="M76.1687 12.445L71.2188 33.805L76.3187 33.805L78.2087 25.705C78.3688 24.985 78.5888 24.385 78.8688 23.905C79.1687 23.405 79.5188 23.035 79.9187 22.795C80.3388 22.535 80.8187 22.405 81.3587 22.405C82.0788 22.405 82.5988 22.635 82.9187 23.095C83.2388 23.535 83.3087 24.155 83.1288 24.955L81.0587 33.805L86.1588 33.805L88.4088 24.145Q88.7988 22.405 88.3488 21.145C88.0688 20.305 87.5687 19.655 86.8488 19.195C86.1488 18.735 85.2988 18.505 84.2988 18.505C83.2988 18.505 82.4088 18.705 81.6288 19.105C80.8488 19.505 80.1987 20.035 79.6787 20.695C79.5118 20.9069 79.3582 21.1281 79.2181 21.3585L81.2688 12.445L76.1687 12.445ZM72.64 17.995L73.57 14.005L55.57 14.005L54.64 17.995L61.09 17.995L57.43 33.805L62.59 33.805L66.25 17.995L72.64 17.995ZM109.151 14.005L109.151 33.805L119.231 33.805C121.631 33.805 123.431 33.345 124.631 32.425C125.831 31.485 126.431 30.165 126.431 28.465C126.431 27.265 126.051 26.245 125.291 25.405C124.551 24.545 123.421 24.015 121.901 23.815L121.901 23.785C123.261 23.565 124.271 23.055 124.931 22.255C125.591 21.435 125.921 20.465 125.921 19.345C125.921 17.625 125.341 16.315 124.181 15.415C123.021 14.495 121.221 14.025 118.781 14.005L109.151 14.005ZM117.881 22.105L114.131 22.105L114.131 17.785L117.881 17.785C119.721 17.785 120.641 18.505 120.641 19.945C120.641 21.385 119.721 22.105 117.881 22.105ZM140.579 19.435C139.399 18.815 138.019 18.505 136.439 18.505C134.899 18.505 133.529 18.815 132.329 19.435C131.129 20.035 130.189 20.925 129.509 22.105C128.849 23.265 128.519 24.665 128.519 26.305C128.519 27.945 128.849 29.355 129.509 30.535C130.189 31.695 131.129 32.585 132.329 33.205C133.529 33.805 134.899 34.105 136.439 34.105C138.019 34.105 139.399 33.805 140.579 33.205C141.779 32.585 142.709 31.695 143.369 30.535C144.049 29.355 144.389 27.945 144.389 26.305C144.389 24.665 144.049 23.265 143.369 22.105Q142.852 21.1805 142.114 20.4934Q141.439 19.8649 140.579 19.435ZM94.06 33.235C95.18 33.795 96.48 34.075 97.96 34.075C99.08 34.075 100.11 33.935 101.05 33.655C102.01 33.355 102.84 32.935 103.54 32.395C104.26 31.855 104.79 31.205 105.13 30.445L100.93 28.795C100.69 29.295 100.35 29.715 99.91 30.055C99.47 30.375 98.89 30.535 98.17 30.535C97.59 30.535 97.08 30.425 96.64 30.205Q96.4556 30.0996 96.2918 29.9686Q95.8959 29.6519 95.62 29.185C95.3913 28.7658 95.2716 28.2558 95.2608 27.655L105.64 27.655C105.76 27.255 105.84 26.845 105.88 26.425C105.92 26.005 105.94 25.605 105.94 25.225Q105.94 23.185 105.13 21.685C104.59 20.685 103.8 19.915 102.76 19.375C101.74 18.815 100.5 18.535 99.04 18.535C97.28 18.535 95.76 18.915 94.48 19.675Q93.6363 20.1839 92.9599 20.8602Q92.1213 21.6989 91.54 22.795Q90.52 24.745 90.52 27.265C90.52 28.625 90.83 29.815 91.45 30.835C92.07 31.855 92.94 32.655 94.06 33.235ZM95.613 24.895Q95.7735 24.3912 96.01 23.935C96.29 23.375 96.66 22.925 97.12 22.585C97.6 22.245 98.2 22.075 98.92 22.075Q99.58 22.075 100.06 22.345C100.38 22.505 100.63 22.755 100.81 23.095C100.99 23.435 101.08 23.865 101.08 24.385C101.08 24.5469 101.072 24.7169 101.056 24.895L95.613 24.895ZM156.774 26.2386L161.977 18.805L156.247 18.805L153.531 23.7551L150.847 18.805L144.967 18.805L150.169 26.2126L144.757 33.805L150.487 33.805L153.386 28.6273L156.247 33.805L162.097 33.805L156.774 26.2386ZM134.939 22.555C135.359 22.275 135.859 22.135 136.439 22.135C137.039 22.135 137.549 22.275 137.969 22.555C138.389 22.835 138.709 23.285 138.929 23.905C139.149 24.525 139.259 25.325 139.259 26.305Q139.259 27.775 138.929 28.705C138.709 29.305 138.389 29.755 137.969 30.055C137.549 30.335 137.039 30.475 136.439 30.475C135.859 30.475 135.359 30.335 134.939 30.055C134.519 29.755 134.199 29.305 133.979 28.705C133.759 28.085 133.649 27.285 133.649 26.305Q133.649 24.835 133.979 23.905C134.199 23.285 134.519 22.835 134.939 22.555ZM118.361 30.175L114.131 30.175L114.131 25.795L118.361 25.795C119.301 25.795 120.001 25.985 120.461 26.365C120.921 26.725 121.151 27.255 121.151 27.955C121.151 28.675 120.921 29.225 120.461 29.605C120.001 29.985 119.301 30.175 118.361 30.175Z" fill="#2947A9" fill-opacity="1.000000" fill-rule="evenodd"/>
</svg>
